# xmcd CD database file
#
# Track frame offsets:
#	150
#	9514
#	23339
#	36731
#	50701
#	64034
#	84567
#	98887
#	110846
#	127482
#	141222
#	152043
#	172625
#	185907
#
# Disc length: 2643 seconds
#
# Revision: 0
# Processed by: cddbd v1.5.1PL2 Copyright (c) Steve Scherf et al.
# Submitted via: CDex 1.51
#
DISCID=c50a510e
DTITLE=PADDY O'BRIEN - MAKING FRIENDS
DYEAR=1900
DGENRE=Country
TTITLE0=WE SPLIT THE BLANKET
TTITLE1=PASS ME BY
TTITLE2=SHORES OF AMERIKAY
TTITLE3=SUMMERS BACK IN IRELAND
TTITLE4=LIFE GOES SLOWLY BY
TTITLE5=IRELAND ILOVE EVERY INCH OF YOU
TTITLE6='YODELLIN' AROUND 'FORM TOWN TO TOWN'
TTITLE7=WE WERE MADE FOR EACH OTHER
TTITLE8=I CAN 'T QUITE BELIEVE THAT YOU'VE STOPPED LOVEING ME'
TTITLE9=SANTO DOMINGGO
TTITLE10=LITTLE WHITE CROSS
TTITLE11=DARLIN WAIT TIL' MORNING
TTITLE12=WATERFORD IS WAITING FOR ME
TTITLE13=I'M CASTING MY LASSOO
EXTD=
EXTT0=
EXTT1=
EXTT2=
EXTT3=
EXTT4=
EXTT5=
EXTT6=
EXTT7=
EXTT8=
EXTT9=
EXTT10=
EXTT11=
EXTT12=
EXTT13=
PLAYORDER=
